G04 ================== begin FILE IDENTIFICATION RECORD ==================*
G04 Layout Name:  D:/Projects/Battery_Module/PCB/BAT_MODULE.brd*
G04 Film Name:    01.TOP*
G04 File Format:  Gerber RS274X*
G04 File Origin:  Cadence Allegro 17.4-S037*
G04 Origin Date:  Fri Dec  8 17:19:02 2023*
G04 *
G04 Layer:  ETCH/TOP*
G04 Layer:  PIN/TOP*
G04 Layer:  VIA CLASS/TOP*
G04 *
G04 Offset:    (0.0000 0.0000)*
G04 Mirror:    No*
G04 Mode:      Positive*
G04 Rotation:  0*
G04 FullContactRelief:  No*
G04 UndefLineWidth:     0.1270*
G04 ================== end FILE IDENTIFICATION RECORD ====================*
%FSLAX35Y35*MOMM*%
%IR0*IPPOS*OFA0.00000B0.00000*MIA0B0*SFA1.00000B1.00000*%
%ADD10C,.4064*%
%ADD16C,.5588*%
%ADD15R,1.4X.8999*%
%ADD20R,.8999X1.5001*%
%ADD11R,1.651X1.397*%
%ADD14R,.8128X.762*%
%ADD13R,.762X.8128*%
%ADD12R,3.4999X4.7*%
%ADD19R,.8501X.2799*%
%ADD18R,.2799X.8501*%
%AMMACRO17*
4,1,20,.3899,1.6,
.3899,2.6752,
.11,2.6752,
.11,1.7501,
-.11,1.7501,
-.11,2.6752,
-.3899,2.6752,
-.3899,1.6,
-1.1001,1.6,
-1.1001,-1.5999,
-.3899,-1.5999,
-.3899,-2.6751,
-.11,-2.6751,
-.11,-1.75,
.11,-1.75,
.11,-2.6751,
.3899,-2.6751,
.3899,-1.5999,
1.1001,-1.5999,
1.1001,1.6,
.3899,1.6,
0.0*
%
%ADD17MACRO17*%
%ADD21C,.1524*%
%ADD22C,1.1004*%
G75*
%LPD*%
G75*
G36*
G01X2640050Y2480000D02*
X3451260D01*
X3451950Y2475740D01*
G03X3600000Y2349980I148050J24265D01*
G01Y1310000D01*
X3570000Y1280000D01*
X2900000D01*
X2880000Y1300000D01*
Y1430000D01*
X2870000Y1440000D01*
X2400000D01*
X2360000Y1400000D01*
Y1241250D01*
G03X2346880Y1219000I12297J-22244D01*
G01Y1191020D01*
G03X2349390Y1180000I25417J-7D01*
G03X2346880Y1168980I22907J-11013D01*
G01Y1141000D01*
G03X2349380Y1130000I25417J-7D01*
G03X2346880Y1119000I22917J-10993D01*
G01Y1091020D01*
G03X2349390Y1080000I25417J-7D01*
G03X2346880Y1068980I22907J-11013D01*
G01Y1041000D01*
G03X2349380Y1030000I25417J-7D01*
G03X2346880Y1019000I22917J-10993D01*
G01Y991020D01*
G03X2349390Y980000I25417J-7D01*
G03X2346880Y968980I22907J-11013D01*
G01Y941000D01*
G03X2349520Y929700I25418J-20D01*
G03X2347080Y918840I22981J-10868D01*
G01Y890860D01*
G03X2349590Y879840I25423J-5D01*
G03X2348050Y875780I22912J-11013D01*
G02X2335970Y868660I-9773J2774D01*
G03X2330200Y869320I-5755J-24757D01*
G01X2302200D01*
G03X2276780Y843900I0J-25420D01*
G01Y758900D01*
G03X2302200Y733480I25420J0D01*
G01X2306520D01*
X2310000Y730000D01*
X2530000D01*
X2540000Y740000D01*
Y790000D01*
X2550000Y800000D01*
X2860000D01*
X2880000Y780000D01*
Y670000D01*
X2900000Y650000D01*
X3960000D01*
X3980000Y630000D01*
Y100000D01*
G02X3900000Y20000I-80000J0D01*
G01X3748740D01*
X3748050Y24260D01*
G03X3451950I-148050J-24265D01*
G01X3451260Y20000D01*
X548740D01*
X548050Y24260D01*
G03X400000Y150020I-148050J-24265D01*
G03X251950Y24260I0J-150025D01*
G01X251260Y20000D01*
X100000D01*
G02X20000Y100000I0J80000D01*
G01Y570000D01*
X30000Y580000D01*
X1610000D01*
X1680000Y650000D01*
X1870000D01*
X1940000Y580000D01*
X2160000D01*
X2200000Y620000D01*
Y748430D01*
X2200700Y749630D01*
G03X2204200Y762500I-21917J12871D01*
G01Y847520D01*
G03X2178780Y872940I-25420J0D01*
G01X2151260D01*
X2150800D01*
X2150550D01*
G02X2145420Y878020I-51J5079D01*
G01Y880530D01*
X2132920Y893030D01*
Y916970D01*
X2145420Y929470D01*
Y1130530D01*
X2132920Y1143030D01*
Y1168840D01*
G03X2130680Y1179260I-25422J-14D01*
G02X2143650Y1188080I10116J-929D01*
G03X2150800Y1187060I7129J24403D01*
G01X2178780D01*
G03X2204200Y1212480I0J25420D01*
G01Y1297500D01*
G03X2200700Y1310370I-25417J-1D01*
G01X2200000Y1311570D01*
Y1570000D01*
X2170000Y1600000D01*
X1670000D01*
X1660000Y1610000D01*
Y1907650D01*
X1689490Y1937120D01*
X2059990D01*
G03X2076170Y1943820I0J22887D01*
G01X2094260Y1961910D01*
X2096250Y1961990D01*
G03X2114720Y1968500I-1254J33013D01*
G03X2117490Y1970890I-15178J20392D01*
G01X2149240Y2002550D01*
X2150120Y2002930D01*
G03X2165400Y2026240I-10139J23309D01*
G01Y2176260D01*
G03X2139980Y2201680I-25420J0D01*
G01X2050000D01*
G03X2028560Y2189930I-7J-25424D01*
G02X2011440I-8560J5462D01*
G03X2010040Y2191900I-21399J-13725D01*
G01X2010030Y2191910D01*
X1970630Y2243210D01*
G03X1968680Y2245460I-20153J-15496D01*
G03X1948690Y2255240I-23669J-23059D01*
G01X1946920Y2255440D01*
X1871200Y2331150D01*
G02X1877420Y2348450I7185J7185D01*
G03X1900420Y2373760I-2420J25305D01*
G01Y2463740D01*
G03X1900040Y2468100I-25419J-19D01*
G02X1910050Y2480000I10011J1739D01*
G01X2429950D01*
G02X2439960Y2468100I-1J-10161D01*
G03X2439580Y2463740I25039J-4379D01*
G01Y2373760D01*
G03X2465000Y2348340I25420J0D01*
G01X2605000D01*
G03X2630420Y2373760I0J25420D01*
G01Y2463740D01*
G03X2630040Y2468100I-25419J-19D01*
G02X2640050Y2480000I10011J1739D01*
G37*
G36*
G01X251260D02*
X251950Y2475740D01*
G03X400000Y2349980I148050J24265D01*
G03X465410Y2364990I0J150026D01*
G02X480000Y2355850I4430J-9143D01*
G01Y1990000D01*
X510000Y1960000D01*
X710000D01*
X740000Y1930000D01*
Y990000D01*
X780000Y950000D01*
X880000D01*
X910000Y920000D01*
Y860000D01*
X960000Y810000D01*
X1900000D01*
X1970000Y880000D01*
X1976870D01*
X1978250Y878910D01*
G03X1981950Y876380I20458J25948D01*
G03X1988260Y873730I12908J21897D01*
G01X2015480Y866420D01*
X2015520Y866410D01*
G03X2022470Y865440I6955J24448D01*
G01X2110160D01*
Y843420D01*
X2120000D01*
Y819690D01*
X2117890Y807890D01*
X2070000Y760000D01*
X1950000D01*
X1870000Y680000D01*
X30000D01*
X20000Y690000D01*
Y2400000D01*
G02X31770Y2441770I80003J0D01*
G01X58230Y2468230D01*
G02X100000Y2480000I41770J-68233D01*
G01X251260D01*
G37*
G36*
G01X649690Y2096210D02*
X588100Y2130640D01*
X548100Y2090000D01*
X588100Y2049360D01*
X649690Y2083790D01*
G03Y2096210I-4410J6210D01*
G37*
G36*
G01X1190000Y2100000D02*
X1580000D01*
X1610000Y2070000D01*
Y1921200D01*
X1609480Y1920130D01*
G03X1607120Y1910020I20518J-10120D01*
G01Y1560000D01*
G03X1609480Y1549890I22878J10D01*
G01X1610000Y1548820D01*
Y1290000D01*
X1670000Y1230000D01*
X1820000D01*
X1920000Y1130000D01*
X1976930D01*
G03X1981950Y1126370I21787J24843D01*
G03X1988250Y1123720I12916J21893D01*
G01X2015880Y1116290D01*
G03X2022480Y1115420I6594J24551D01*
G01X2110160D01*
Y944260D01*
X2022480D01*
G03X2015520Y943290I-5J-25418D01*
G01X2015480Y943280D01*
X2000690Y939310D01*
X1990000Y950000D01*
X1180000D01*
X1160000Y970000D01*
Y2070000D01*
X1190000Y2100000D01*
G37*
G36*
G01X1854540Y886430D02*
X1790640Y918100D01*
X1748100Y880000D01*
X1790640Y841900D01*
X1854540Y873570D01*
G03Y886430I-4090J6430D01*
G37*
G36*
G01X1842360Y1315920D02*
X1790640Y1348100D01*
X1748100Y1310000D01*
X1790640Y1271900D01*
X1842360Y1304080D01*
G03Y1315920I-4800J5920D01*
G37*
G36*
G01X1640000Y2297120D02*
X1840520D01*
X1851120Y2286520D01*
G02X1843940Y2269180I-7182J-7183D01*
G01X1735000D01*
G03X1709580Y2243760I0J-25420D01*
G01Y2153760D01*
G03X1735000Y2128340I25420J0D01*
G01X1874600D01*
Y2026240D01*
G03X1900020Y2000820I25420J0D01*
G01X1990000D01*
G03X2011440Y2012570I7J25424D01*
G02X2028560I8560J-5462D01*
G03X2039860Y2002930I21430J13677D01*
G01X2040740Y2002550D01*
X2043060Y2000230D01*
G02X2035890Y1982880I-7175J-7191D01*
G01X1680020D01*
G03X1673190Y1981840I-10J-22882D01*
G02X1660000Y1991530I-3031J9696D01*
G01Y2000000D01*
X1640000Y2020000D01*
Y2297120D01*
G37*
G36*
G01X1650000Y2480000D02*
X1699950D01*
G02X1709960Y2468100I-1J-10161D01*
G03X1709580Y2463740I25039J-4379D01*
G01Y2373760D01*
G03X1714330Y2358950I25422J-13D01*
G02X1706070Y2342880I-8260J-5912D01*
G01X1640000D01*
Y2470000D01*
X1650000Y2480000D01*
G37*
G36*
G01X2143520Y746020D02*
X2178780Y762500D01*
X2167900Y811970D01*
X2150800Y847520D01*
X2134130Y754150D01*
G03X2143520Y746020I7583J-730D01*
G37*
G36*
G01X2075760Y726330D02*
X2047320Y698100D01*
X2080000Y658100D01*
X2112680Y698100D01*
X2084240Y726330D01*
G03X2075760I-4240J-6330D01*
G37*
G36*
G01X1994850Y1148270D02*
X2022480Y1140840D01*
X2066900Y1154840D01*
X2022480Y1168840D01*
X1994850Y1161410D01*
G03Y1148270I3870J-6570D01*
G37*
G36*
G01Y898280D02*
X2022480Y890860D01*
X2066900Y904850D01*
X2022480Y918840D01*
X1994850Y911420D01*
G03Y898280I3870J-6570D01*
G37*
G36*
G01X2110030Y1250160D02*
X2150800Y1212480D01*
X2166700Y1254990D01*
X2150800Y1297500D01*
X2110030Y1259820D01*
G03Y1250160I5890J-4830D01*
G37*
G36*
G01X2096210Y1410310D02*
X2130640Y1471900D01*
X2090000Y1511900D01*
X2049360Y1471900D01*
X2083790Y1410310D01*
G03X2096210I6210J4410D01*
G37*
G36*
G01X1835460Y1503570D02*
X1899360Y1471900D01*
X1941900Y1510000D01*
X1899360Y1548100D01*
X1835460Y1516430D01*
G03Y1503570I4090J-6430D01*
G37*
G36*
G01X1946210Y1410310D02*
X1980640Y1471900D01*
X1940000Y1511900D01*
X1899360Y1471900D01*
X1933790Y1410310D01*
G03X1946210I6210J4410D01*
G37*
G36*
G01X1994850Y1198280D02*
X2022480Y1190860D01*
X2066900Y1204850D01*
X2022480Y1218840D01*
X1994850Y1211420D01*
G03Y1198280I3870J-6570D01*
G37*
G36*
G01X2099540Y1988890D02*
X2137020Y2026260D01*
X2094990Y2103160D01*
X2052960Y2026260D01*
X2090440Y1988890D01*
G03X2099540I4550J6110D01*
G37*
G36*
G01X1939550Y2227720D02*
X1900020Y2176260D01*
X1945010Y2099340D01*
X1990000Y2176260D01*
X1950470Y2227720D01*
G03X1939550I-5460J-5320D01*
G37*
G36*
G01X2484940Y1111580D02*
X2457300Y1119000D01*
X2412900Y1105010D01*
X2457300Y1091020D01*
X2484940Y1098440D01*
G03Y1111580I-3870J6570D01*
G37*
G36*
G01Y1161560D02*
X2457300Y1168980D01*
X2412900Y1154990D01*
X2457300Y1141000D01*
X2484940Y1148420D01*
G03Y1161560I-3870J6570D01*
G37*
G36*
G01X3748740Y2480000D02*
X3900000D01*
G02X3941770Y2468230I0J-80003D01*
G01X3968230Y2441770D01*
G02X3980000Y2400000I-68233J-41770D01*
G01Y750000D01*
X3970000Y740000D01*
X2920000D01*
X2910000Y750000D01*
Y810000D01*
X2900000Y820000D01*
X2875950D01*
X2870530Y825420D01*
X2744580D01*
X2730000Y840000D01*
Y920000D01*
X2700000Y950000D01*
X2570000D01*
X2550000Y930000D01*
X2502710D01*
G03X2498050Y933320I-21431J-25151D01*
G03X2491740Y935970I-12908J-21897D01*
G01X2464520Y943280D01*
X2464480Y943290D01*
G03X2457520Y944260I-6955J-24448D01*
G01X2385420D01*
Y1065600D01*
X2457300D01*
G03X2464390Y1066600I30J25419D01*
G01X2464440Y1066620D01*
X2491530Y1073890D01*
G03X2497840Y1076540I-6598J24547D01*
G03X2502670Y1080000I-16750J28484D01*
G01X3600000D01*
X3640000Y1120000D01*
Y2355410D01*
G03X3748050Y2475740I-39997J144592D01*
G01X3748740Y2480000D01*
G37*
G36*
G01X2535460Y873570D02*
X2599360Y841900D01*
X2641900Y880000D01*
X2599360Y918100D01*
X2535460Y886430D01*
G03Y873570I4090J-6430D01*
G37*
G36*
G01X2485150Y911420D02*
X2457520Y918840D01*
X2413100Y904850D01*
X2457520Y890860D01*
X2485150Y898280D01*
G03Y911420I-3870J6570D01*
G37*
G36*
G01X2546310Y1354650D02*
X2589360Y1321900D01*
X2631900Y1360000D01*
X2589360Y1398100D01*
X2546310Y1365350D01*
G03Y1354650I5420J-5350D01*
G37*
G36*
G01X2484940Y1211580D02*
X2457300Y1219000D01*
X2412900Y1205010D01*
X2457300Y1191020D01*
X2484940Y1198440D01*
G03Y1211580I-3870J6570D01*
G37*
G36*
G01X2909690Y1216210D02*
X2848100Y1250640D01*
X2808100Y1210000D01*
X2848100Y1169360D01*
X2909690Y1203790D01*
G03Y1216210I-4410J6210D01*
G37*
G36*
G01X2855460Y1203570D02*
X2919360Y1171900D01*
X2961900Y1210000D01*
X2919360Y1248100D01*
X2855460Y1216430D01*
G03Y1203570I4090J-6430D01*
G37*
G36*
G01X2746600Y1300500D02*
X2840640Y1321900D01*
X2801380Y1361310D01*
X2759360Y1398100D01*
X2737970Y1309200D01*
G03X2746600Y1300500I7531J-1160D01*
G37*
G36*
G01X2741230Y1293340D02*
X2631900Y1250640D01*
X2668680Y1208630D01*
X2708100Y1169360D01*
X2750830Y1283870D01*
G03X2741230Y1293340I-7291J2209D01*
G37*
G36*
G01X2576310Y1204050D02*
X2631900Y1169360D01*
X2671900Y1210000D01*
X2631900Y1250640D01*
X2576310Y1215950D01*
G03Y1204050I4760J-5950D01*
G37*
G36*
G01X3124170Y1145200D02*
X3151100Y1171900D01*
X3120000Y1211900D01*
X3088900Y1171900D01*
X3115830Y1145200D01*
G03X3124170I4170J6380D01*
G37*
G36*
G01X3160310Y1203790D02*
X3221900Y1169360D01*
X3261900Y1210000D01*
X3221900Y1250640D01*
X3160310Y1216210D01*
G03Y1203790I4410J-6210D01*
G37*
G36*
G01X3224540Y1216430D02*
X3160640Y1248100D01*
X3118100Y1210000D01*
X3160640Y1171900D01*
X3224540Y1203570D01*
G03Y1216430I-4090J6430D01*
G37*
G36*
G01X3493690Y1215950D02*
X3438100Y1250640D01*
X3398100Y1210000D01*
X3438100Y1169360D01*
X3493690Y1204050D01*
G03Y1215950I-4760J5950D01*
G37*
%LPC*%
G75*
G36*
G01X2439580Y2201680D02*
Y2243760D01*
G02X2465000Y2269180I25420J0D01*
G01X2605000D01*
G02X2630420Y2243760I0J-25420D01*
G01Y2153760D01*
G02X2605000Y2128340I-25420J0D01*
G01X2465400D01*
Y2026240D01*
G02X2439980Y2000820I-25420J0D01*
G01X2350000D01*
G02X2324580Y2026240I0J25420D01*
G01Y2176260D01*
G02X2350000Y2201680I25420J0D01*
G01X2439580D01*
G37*
G54D22*
X2020000Y2308690D03*
X2320000D03*
%LPD*%
G75*
G54D10*
X290000Y230000D03*
X350960D03*
X411920D03*
X472880D03*
X533840D03*
X594800D03*
X655760D03*
X290000Y290960D03*
X350960D03*
X411920D03*
X472880D03*
X533840D03*
X594800D03*
X655760D03*
X290000Y351920D03*
X350960D03*
X411920D03*
X472880D03*
X533840D03*
X594800D03*
X655760D03*
X716720Y230000D03*
X777680D03*
X838640D03*
X899600D03*
X716720Y290960D03*
X777680D03*
X838640D03*
X899600D03*
X716720Y351920D03*
X777680D03*
X838640D03*
X899600D03*
X2166200Y910000D03*
Y986200D03*
Y1062400D03*
Y1138600D03*
X2240000Y530000D03*
X2300960D03*
X2361920D03*
X2422880D03*
X2483840D03*
X2544800D03*
X2240000Y590960D03*
X2300960D03*
X2361920D03*
X2422880D03*
X2483840D03*
X2544800D03*
X2240000Y651920D03*
X2300960D03*
X2361920D03*
X2422880D03*
X2483840D03*
X2544800D03*
X2242400Y910000D03*
Y986200D03*
Y1062400D03*
Y1138600D03*
X2322400Y910000D03*
Y986200D03*
Y1062400D03*
Y1138600D03*
X2230000Y1480000D03*
X2290960D03*
X2351920D03*
X2412880D03*
X2473840D03*
X2230000Y1540960D03*
X2290960D03*
X2351920D03*
X2412880D03*
X2473840D03*
X2230000Y1601920D03*
X2290960D03*
X2351920D03*
X2412880D03*
X2473840D03*
X2230000Y1662880D03*
X2290960D03*
X2351920D03*
X2412880D03*
X2473840D03*
X2890000Y290000D03*
X2950960D03*
X2890000Y350960D03*
X2950960D03*
X2890000Y411920D03*
X2950960D03*
X3011920Y290000D03*
X3072880D03*
X3133840D03*
X3194800D03*
X3255760D03*
X3316720D03*
X3011920Y350960D03*
X3072880D03*
X3133840D03*
X3194800D03*
X3255760D03*
X3316720D03*
X3011920Y411920D03*
X3072880D03*
X3133840D03*
X3194800D03*
X3255760D03*
X3316720D03*
X3377680Y290000D03*
X3438640D03*
X3499600D03*
X3560560D03*
X3621520D03*
X3682480D03*
X3377680Y350960D03*
X3438640D03*
X3499600D03*
X3560560D03*
X3621520D03*
X3682480D03*
X3377680Y411920D03*
X3438640D03*
X3499600D03*
X3560560D03*
X3621520D03*
X3682480D03*
G54D11*
X420000Y490300D03*
Y769700D03*
X760000Y490300D03*
Y769700D03*
X3030000Y560300D03*
Y839700D03*
X3290000Y560300D03*
Y839700D03*
X3550000Y560300D03*
Y839700D03*
G54D20*
X1945010Y2101250D03*
X2094990D03*
X2394990D03*
G54D21*
G01X1945010D02*
Y2224990D01*
X1850000Y2320000D01*
X900000D01*
X670000Y2090000D01*
X550000D01*
G01X2064990Y904850D02*
X1904850D01*
X1880000Y880000D01*
X1750000D01*
G01Y1310000D02*
X1840000D01*
X1880000Y1270000D01*
Y1210000D01*
X1935160Y1154840D01*
X2064990D01*
G01X1940000Y1510000D02*
X1680000D01*
X1630000Y1560000D01*
Y1910020D01*
X1680020Y1960000D01*
X2059990D01*
X2094990Y1995000D01*
Y2101250D01*
G01X2080000Y660000D02*
Y720000D01*
X2108130Y748130D01*
X2136420D01*
X2164790Y776500D01*
Y805010D01*
G01Y1254990D02*
X2115010D01*
X2090000Y1280000D01*
Y1510000D01*
G01X1940000D02*
Y1230000D01*
X1965150Y1204850D01*
X2064990D01*
G01X3120000Y1210000D02*
Y1151580D01*
X3110000Y1141580D01*
Y1140000D01*
X3075010Y1105010D01*
X2414800D01*
G01Y1154990D02*
X2524990D01*
X2580000Y1210000D01*
X2670000D01*
G01X2640000Y880000D02*
X2530000D01*
X2505150Y904850D01*
X2415010D01*
G01X2630000Y1360000D02*
X2550000D01*
X2520000Y1330000D01*
Y1240000D01*
X2485010Y1205010D01*
X2414800D01*
G01X2810000Y1210000D02*
X2960000D01*
G01X2670000D02*
Y1212540D01*
X2744990Y1287530D01*
Y1307530D01*
X2797460Y1360000D01*
X2800000D01*
G01X3120000Y1210000D02*
X3260000D01*
G01X3510000Y1060000D02*
Y1190000D01*
X3490000Y1210000D01*
X3400000D01*
G54D12*
X505000Y1490000D03*
X1375000D03*
G54D13*
X410000Y2090000D03*
X550000D03*
X2670000Y1210000D03*
X2810000D03*
X3260000D03*
X3400000D03*
G54D14*
X1750000Y740000D03*
Y600000D03*
Y880000D03*
Y1020000D03*
Y1170000D03*
Y1310000D03*
X2080000Y520000D03*
Y660000D03*
X2090000Y1510000D03*
X1940000D03*
X2090000Y1650000D03*
X1940000D03*
X2810000Y740000D03*
X2640000D03*
X2960000Y1210000D03*
X2810000Y880000D03*
X2640000D03*
X2800000Y1500000D03*
Y1360000D03*
X2960000Y1350000D03*
X2630000Y1360000D03*
Y1500000D03*
X3120000Y1210000D03*
Y1350000D03*
G54D15*
X1805000Y2198760D03*
Y2418750D03*
X2535000Y2198760D03*
Y2418750D03*
G54D16*
X1740000Y2060000D03*
X1681660Y2410000D03*
G54D17*
X2245590Y1028830D03*
G54D18*
X2164790Y805010D03*
Y1254990D03*
X2316200Y801400D03*
X2315010Y1254990D03*
G54D19*
X2064990Y854840D03*
Y904850D03*
Y954840D03*
Y1004850D03*
Y1054840D03*
Y1104850D03*
Y1154840D03*
Y1204850D03*
X2414800Y1154990D03*
Y1105010D03*
Y1054990D03*
Y1005010D03*
Y954990D03*
X2415010Y904850D03*
Y854840D03*
X2414800Y1205010D03*
M02*
